Coordinates
version=1
nRows=49
nColumns=12
inDegrees=yes

Units are S.I. units (second, meters, Newtons, ...)
Angles are in degrees

endheader
time	SC_y	SC_z	SC_x	AC_y	AC_z	AC_x	GH_y	GH_z	GH_yy	EL_x	PS_y
       0.0              -11.48          9.979          45.44          61.57         -8.439          18.35         -154.1          28.69          -42.4          81.09          71.19
   0.04216              -11.49          9.978          45.44          61.57         -8.439          18.35         -154.1          28.69         -42.37          81.08           71.2
   0.08432               -11.5          9.977          45.44          61.56         -8.439          18.35         -154.1          28.69         -42.35          81.07          71.21
    0.1265               -11.5          9.976          45.43          61.56         -8.439          18.35         -154.1          28.69         -42.33          81.06          71.21
    0.1686              -11.51          9.975          45.43          61.55         -8.439          18.35         -154.1          28.68          -42.3          81.05          71.22
    0.2108              -11.52          9.974          45.43          61.55         -8.439          18.35         -154.0          28.68         -42.28          81.03          71.23
     0.253              -11.53          9.972          45.43          61.55         -8.439          18.34         -154.0          28.68         -42.25          81.02          71.24
    0.2951              -11.54          9.971          45.43          61.54         -8.439          18.34         -154.0          28.68         -42.22          81.01          71.25
    0.3373              -11.55          9.969          45.42          61.53         -8.439          18.34         -154.0          28.68         -42.18          80.99          71.26
    0.3794              -11.56          9.968          45.42          61.53         -8.439          18.34         -153.9          28.67         -42.15          80.97          71.27
    0.4216              -11.57          9.966          45.42          61.52         -8.439          18.34         -153.9          28.67         -42.11          80.95          71.28
    0.4638              -11.58          9.964          45.42          61.52         -8.439          18.33         -153.9          28.67         -42.07          80.93          71.29
    0.5059              -11.59          9.962          45.41          61.51         -8.439          18.33         -153.8          28.67         -42.02          80.91           71.3
    0.5481              -11.61           9.96          45.41           61.5         -8.439          18.33         -153.8          28.66         -41.97          80.89          71.32
    0.5902              -11.62          9.957           45.4          61.49         -8.439          18.33         -153.7          28.66         -41.92          80.86          71.33
    0.6324              -11.64          9.955           45.4          61.48         -8.439          18.32         -153.7          28.65         -41.87          80.84          71.35
    0.6746              -11.65          9.952           45.4          61.47         -8.439          18.32         -153.6          28.65         -41.81          80.81          71.37
    0.7167              -11.67          9.949          45.39          61.46          -8.44          18.32         -153.6          28.65         -41.74          80.78          71.39
    0.7589              -11.69          9.945          45.39          61.45          -8.44          18.31         -153.5          28.64         -41.67          80.74          71.41
     0.801              -11.72          9.942          45.38          61.44          -8.44          18.31         -153.4          28.64         -41.59           80.7          71.43
    0.8432              -11.74          9.938          45.37          61.42          -8.44           18.3         -153.3          28.63          -41.5          80.66          71.46
    0.8854              -11.77          9.933          45.37          61.41          -8.44           18.3         -153.3          28.62          -41.4          80.61          71.49
    0.9275               -11.8          9.928          45.36          61.39          -8.44          18.29         -153.2          28.62          -41.3          80.56          71.52
    0.9697              -11.84          9.923          45.35          61.37          -8.44          18.29         -153.1          28.61         -41.18          80.51          71.56
     1.012              -11.87          9.917          45.34          61.35          -8.44          18.28         -152.9           28.6         -41.05          80.44          71.59
     1.054              -11.92           9.91          45.33          61.32          -8.44          18.27         -152.8          28.59          -40.9          80.37          71.64
     1.096              -11.96          9.903          45.32           61.3          -8.44          18.26         -152.7          28.58         -40.74          80.29          71.69
     1.138              -12.02          9.894           45.3          61.27          -8.44          18.25         -152.5          28.56         -40.55           80.2          71.74
      1.18              -12.08          9.885          45.29          61.23          -8.44          18.24         -152.3          28.55         -40.35           80.1           71.8
     1.223              -12.15          9.874          45.27          61.19          -8.44          18.23         -152.1          28.53         -40.11          79.99          71.87
     1.265              -12.22          9.861          45.25          61.15          -8.44          18.21         -151.9          28.52         -39.84          79.86          71.95
     1.307              -12.31          9.847          45.23           61.1         -8.441           18.2         -151.6          28.49         -39.53          79.71          72.05
     1.349              -12.42          9.831           45.2          61.04         -8.441          18.18         -151.3          28.47         -39.17          79.54          72.15
     1.391              -12.54          9.812          45.17          60.97         -8.441          18.16         -150.9          28.44         -38.76          79.34          72.28
     1.433              -12.68          9.789          45.14          60.89         -8.441          18.13         -150.5          28.41         -38.27           79.1          72.42
     1.476              -12.84          9.763           45.1          60.79         -8.442           18.1         -150.0          28.37          -37.7          78.83          72.59
     1.518              -13.04          9.732          45.05          60.68         -8.442          18.06         -149.4          28.32         -37.02           78.5          72.79
      1.56              -13.28          9.694          44.99          60.55         -8.442          18.02         -148.6          28.27         -36.21           78.1          73.04
     1.602              -13.56          9.649          44.91          60.38         -8.443          17.96         -147.7           28.2         -35.22          77.63          73.33
     1.644              -13.91          9.593          44.83          60.19         -8.443           17.9         -146.7          28.12         -34.02          77.05          73.69
     1.686              -14.34          9.525          44.72          59.94         -8.444          17.82         -145.3          28.02         -32.53          76.33          74.13
     1.729              -14.88           9.44          44.58          59.63         -8.445          17.72         -143.7          27.89         -30.68          75.43          74.68
     1.771              -15.56          9.332          44.41          59.25         -8.446          17.59         -141.6          27.73         -28.34          74.31          75.38
     1.813              -16.42          9.195          44.19          58.76         -8.448          17.43         -138.9          27.53         -25.37          72.87          76.26
     1.855              -17.52          9.021          43.91          58.13          -8.45          17.23         -135.6          27.27         -21.57          71.04           77.4
     1.897              -18.94          8.796          43.56          57.32         -8.452          16.96         -131.2          26.93         -16.69          68.68          78.85
     1.939              -20.74          8.509           43.1          56.29         -8.455          16.63         -125.6          26.51         -10.46          65.67           80.7
     1.982              -23.02          8.149          42.53           55.0         -8.459           16.2         -118.6          25.97          -2.63          61.89          83.04
     2.024              -25.78          7.709          41.83          53.42         -8.464          15.69         -110.1          25.32          6.916          57.28          85.88
